<svg width="27" height="26" viewBox="0 0 27 26" fill="none" xmlns="http://www.w3.org/2000/svg">
<path d="M12.0438 0.784678C12.725 -0.26156 14.275 -0.261559 14.9562 0.784679L18.4457 6.14449C18.6801 6.50447 19.0429 6.76452 19.4624 6.87318L25.7077 8.49104C26.9268 8.80685 27.4058 10.2612 26.6077 11.2236L22.519 16.154C22.2444 16.4852 22.1058 16.9059 22.1307 17.3331L22.501 23.6928C22.5732 24.9342 21.3192 25.833 20.1448 25.3816L14.1283 23.0689C13.7242 22.9136 13.2758 22.9136 12.8717 23.0689L6.8552 25.3816C5.68077 25.833 4.42676 24.9342 4.49904 23.6928L4.8693 17.3331C4.89416 16.9059 4.75558 16.4852 4.48097 16.154L0.392324 11.2236C-0.405782 10.2612 0.0732082 8.80685 1.2923 8.49104L7.53761 6.87318C7.95707 6.76452 8.31988 6.50447 8.55425 6.14449L12.0438 0.784678Z" fill="#5A021A"/>
</svg>
